<?xml version="1.0" encoding="UTF-8"?>
<svg id="Layer_2" data-name="Layer 2" xmlns="http://www.w3.org/2000/svg" viewBox="0 0 424.56 350.83">
  <defs>
    <style>
      .cls-1 {
        fill: #8dc63f;
        stroke-width: 0px;
      }
    </style>
  </defs>
  <g id="Layer_1-2" data-name="Layer 1">
    <path class="cls-1" d="m205.07,215.41c-9.97,0-18.09-8.12-18.09-18.09,0-4.84,1.89-9.4,5.32-12.83,3.43-3.43,7.99-5.32,12.83-5.32h17.95l.08,18.07c.02,4.85-1.85,9.41-5.27,12.85-3.42,3.43-7.97,5.32-12.82,5.32Zm.06-27.24c-2.44,0-4.74.95-6.47,2.68-1.73,1.73-2.68,4.03-2.68,6.47,0,5.01,4.08,9.09,9.09,9.09,2.43,0,4.72-.95,6.44-2.67,1.72-1.73,2.66-4.02,2.65-6.46l-.04-9.11h-8.99Z"/>
    <path class="cls-1" d="m166.73,215.42h-17.95l-.08-18.07c0-.69.03-1.3.1-1.89.42-4.11,2.28-8.01,5.22-10.96,2.94-2.94,6.84-4.8,10.98-5.22.54-.06,1.14-.09,1.79-.09h18.01l.08,18.09c0,.67-.03,1.3-.1,1.89-.42,4.1-2.28,8-5.22,10.95-2.94,2.95-6.84,4.8-10.98,5.22-.54.06-1.16.09-1.85.09Zm-8.99-9h8.99c.34,0,.64-.01.89-.04,2.13-.22,4.1-1.15,5.58-2.64,1.49-1.49,2.42-3.45,2.63-5.54.03-.29.05-.59.05-.92l-.04-9.1h-9.05c-.31,0-.58.01-.82.04-2.13.22-4.1,1.15-5.58,2.64-1.49,1.49-2.42,3.45-2.64,5.54-.03.29-.05.59-.05.93l.04,9.09Z"/>
    <path class="cls-1" d="m234.59,214.89h-9v-17.22c0-8.42,3.2-18.45,18.45-18.45v9c-7.06,0-9.45,2.38-9.45,9.45v17.22Z"/>
    <path class="cls-1" d="m323.57,214.89h-9v-17.22c0-8.42,3.2-18.45,18.45-18.45v9c-7.06,0-9.45,2.38-9.45,9.45v17.22Z"/>
    <path class="cls-1" d="m295.52,215.42c-6.25,0-11.97-3.16-15.3-8.44-1.82-2.88-2.79-6.22-2.79-9.65,0-4.84,1.89-9.4,5.32-12.83,3.15-3.15,6.85-4.73,12.38-5.29l.46-.02h4.06c6.71.11,7.41,6.38,7.82,10.13l.27,2.39-14.44,14.44c.72.18,1.47.28,2.23.28,4.7,0,8.68-3.66,9.05-8.34l8.97.72c-.75,9.32-8.67,16.62-18.03,16.62Zm.3-27.24c-3.75.41-5.36,1.33-6.71,2.68-1.73,1.73-2.68,4.03-2.68,6.47,0,.88.13,1.74.37,2.57l11.49-11.49c-.01-.08-.02-.16-.03-.23h-2.44Z"/>
    <path class="cls-1" d="m248.46,215.42l-.02-9,18.19-.03c.52,0,1.29-.91,1.29-2.29s-.77-2.3-1.29-2.3h-11.38c-5.67,0-10.29-5.06-10.29-11.29s4.62-11.29,10.29-11.29h11.38v9h-11.38c-.51,0-1.29.91-1.29,2.29s.77,2.29,1.29,2.29h11.38c5.67,0,10.29,5.06,10.29,11.29s-4.61,11.3-10.29,11.3l-18.18.03Z"/>
    <path class="cls-1" d="m284.64,280.3c-14.05,0-27.02-2.44-37.21-6.71-11.17-4.68-18.08-11.4-19.47-18.92-1.2-6.48-.05-11.94,3.4-16.24,10.35-12.88,40.74-14.53,98.05-16.54,16.37-.57,28.56-2.65,37.63-5.41.24-1.44.44-2.87.6-4.29-3.19,2.08-7.18,3.16-11.72,3.16-.06,0-.13,0-.19,0-11.7-.08-19.88-8.26-19.88-19.91v-15.77h9v15.77c0,6.58,4.29,10.86,10.94,10.91.04,0,.08,0,.13,0,2.48,0,5.85-.48,8.09-2.73,1.81-1.82,2.71-4.55,2.67-8.13v-15.82l6.2-.24,2.76-.39.04.22c.78,4.61,2.65,18.22.91,33.59,5.77-2.73,9.57-5.73,12.08-8.49,5.34-5.88,5.1-11,5.08-11.21l8.96-.79c.09.89.62,8.92-6.97,17.59-4.88,5.57-11.88,10.06-20.93,13.43-3.18,13.94-10,28-23.68,37.23-20.54,13.87-44.8,19.68-66.48,19.68Zm80.09-53.83c-9.87,2.46-21.55,3.94-35,4.41-51.71,1.81-83.66,3.6-91.35,13.18-1.13,1.4-2.52,3.86-1.57,8.97.81,4.37,5.95,8.83,14.1,12.25,23.09,9.68,64.29,8.72,95.17-12.13,9.83-6.63,15.49-16.4,18.65-26.68Z"/>
    <path class="cls-1" d="m49.6,217.58c-5.15,0-9.35-.96-12.49-2.86-3.43-2.07-5.39-5.24-5.39-8.68,0-5.58,5.25-11.23,15.29-11.23,3.65,0,8.41.73,13.77,1.82,1.92-4.7,3.76-10.67,5.84-17.69,3.05-10.31,6.51-21.99,11.86-32.59,4.29-8.5,8.97-15.06,13.74-20.11-6.93-.55-14.32-.02-22,1.66-44.99,9.82-36.69,51.83-36.31,53.62l-8.8,1.88c-.11-.52-10.64-52.54,43.2-64.29,12.91-2.82,23.87-2.61,33.04-.73,13.11-9.02,25.69-8.73,32.13-7.72,13.89,2.19,25.52,11.21,27.05,20.99l-8.89,1.39c-.7-4.47-7.89-11.65-19.56-13.49-7.1-1.12-13.41.03-18.92,2.48,12.34,5.21,20.05,13.24,23.87,18.12,12.33,15.72,15.5,36.7,7.91,52.2-4.01,8.18-14.57,21.85-40.29,21.85-.14,0-.28,0-.42,0-7.9-.05-19.7-2.84-31.11-5.54-2.44-.58-4.9-1.16-7.3-1.71-3.82,6.52-8.78,10.65-16.21,10.65Zm-2.59-13.78c-4.54,0-6.24,1.76-6.29,2.24.07.38,2.02,2.54,8.88,2.54,2.59,0,4.75-1.27,6.68-3.66-3.67-.68-6.89-1.12-9.27-1.12Zm22.7-5.21c1.79.42,3.62.85,5.47,1.29,10.92,2.59,22.22,5.26,29.09,5.3.12,0,.23,0,.35,0,15.47,0,26.91-5.96,32.23-16.81,6.11-12.47,3.33-29.62-6.91-42.68-6.78-8.65-15.88-14.56-26.51-17.51-8.43,7.06-14.06,16.57-16.92,22.22-4.99,9.88-8.32,21.15-11.27,31.09-1.81,6.11-3.54,11.96-5.54,17.11Z"/>
    <path class="cls-1" d="m212.28,350.83c-56.54,0-109.73-18.14-149.78-51.08C22.2,266.59,0,222.44,0,175.41S22.2,84.24,62.5,51.08C102.55,18.14,155.74,0,212.28,0s109.73,18.14,149.78,51.08c40.3,33.15,62.5,77.31,62.5,124.33s-22.2,91.18-62.5,124.33c-40.05,32.94-93.24,51.08-149.78,51.08Zm0-341.83C100.19,9,9,83.65,9,175.41s91.19,166.41,203.28,166.41,203.28-74.65,203.28-166.41S324.37,9,212.28,9Z"/>
  </g>
</svg>