<?xml version="1.0" encoding="UTF-8"?>
<svg id="Layer_2" data-name="Layer 2" xmlns="http://www.w3.org/2000/svg" viewBox="0 0 1050.55 613.63">
  <defs>
    <style>
      .cls-1 {
        fill: #8dc63f;
      }

      .cls-1, .cls-2 {
        stroke-width: 0px;
      }

      .cls-2 {
        fill: #fdef44;
      }
    </style>
  </defs>
  <g id="Layer_1-2" data-name="Layer 1">
    <g>
      <path class="cls-2" d="m1050.55,434.05c0,63.01-16.1,123.94-46.71,179.58H46.73C16.11,557.99,0,497.06,0,434.05c0-116.36,54.93-225.62,154.65-307.65C253.74,44.89,385.37,0,525.28,0s271.53,44.89,370.63,126.4c99.73,82.03,154.64,191.29,154.64,307.65Z"/>
      <path class="cls-1" d="m515.5,444.74c-24.38,0-44.21-19.83-44.21-44.21,0-11.84,4.62-22.98,13-31.36,8.38-8.38,19.52-13,31.36-13h43.87l.19,44.16c.05,11.85-4.53,23-12.89,31.39-8.36,8.39-19.48,13.01-31.32,13.01Zm.15-66.57c-5.97,0-11.58,2.33-15.81,6.55-4.22,4.23-6.55,9.84-6.55,15.81,0,12.25,9.97,22.21,22.21,22.21,5.95,0,11.54-2.32,15.74-6.53,4.2-4.22,6.5-9.82,6.48-15.78l-.1-22.26h-21.97Z"/>
      <path class="cls-1" d="m421.81,444.74h-43.87l-.19-44.16c0-1.68.08-3.18.23-4.63,1.03-10.05,5.56-19.58,12.76-26.78,7.19-7.2,16.73-11.73,26.84-12.77,1.32-.15,2.79-.23,4.37-.23h44.01l.2,44.21c0,1.63-.08,3.18-.24,4.61-1.03,10.02-5.56,19.56-12.76,26.75-7.2,7.2-16.73,11.73-26.84,12.77-1.33.15-2.84.23-4.52.23Zm-21.97-21.99h21.97c.83,0,1.56-.03,2.17-.1,5.21-.53,10.01-2.82,13.64-6.45,3.63-3.63,5.92-8.44,6.44-13.53.08-.71.11-1.44.11-2.25l-.1-22.24h-22.11c-.75,0-1.41.03-2.01.1-5.21.53-10.02,2.82-13.65,6.45-3.63,3.63-5.92,8.44-6.44,13.53-.08.72-.11,1.44-.11,2.27l.1,22.21Z"/>
      <path class="cls-1" d="m587.65,443.45h-21.99v-42.07c0-20.57,7.82-45.09,45.09-45.09v21.99c-17.26,0-23.09,5.83-23.09,23.09v42.07Z"/>
      <path class="cls-1" d="m805.09,443.45h-21.99v-42.07c0-20.57,7.82-45.09,45.09-45.09v21.99c-17.26,0-23.09,5.83-23.09,23.09v42.07Z"/>
      <path class="cls-1" d="m736.55,444.74c-15.27,0-29.25-7.71-37.39-20.63-4.46-7.04-6.82-15.2-6.82-23.58,0-11.84,4.62-22.98,13-31.36,7.7-7.7,16.74-11.57,30.25-12.94l1.11-.06h9.92c16.39.27,18.1,15.6,19.12,24.76l.65,5.84-35.3,35.3c1.76.44,3.59.67,5.46.67,11.49,0,21.21-8.95,22.13-20.38l21.92,1.76c-1.83,22.78-21.18,40.62-44.05,40.62Zm.73-66.57c-9.17,1-13.09,3.26-16.39,6.55-4.22,4.23-6.55,9.84-6.55,15.81,0,2.14.31,4.26.91,6.28l28.08-28.08c-.03-.2-.05-.38-.08-.57h-5.96Z"/>
      <path class="cls-1" d="m621.55,444.74l-.04-21.99,44.46-.08c1.27,0,3.16-2.23,3.16-5.59s-1.89-5.62-3.14-5.62h-27.82c-13.86,0-25.14-12.37-25.14-27.58s11.28-27.58,25.14-27.58h42.83v21.99h-42.83c-1.25,0-3.15,2.23-3.15,5.59s1.89,5.59,3.15,5.59h27.82c13.86,0,25.14,12.37,25.14,27.58s-11.28,27.62-25.14,27.62l-44.44.08Z"/>
      <path class="cls-1" d="m994.5,388.41l-21.9,1.93c.03.53.63,13.03-12.43,27.4-6.13,6.75-15.43,14.08-29.53,20.75,4.27-37.58-.31-70.83-2.21-82.1l-.09-.55-6.74.96-15.14.59v38.67c.1,8.73-2.1,15.42-6.52,19.86-5.46,5.49-13.7,6.67-19.76,6.67h-.31c-16.24-.11-26.73-10.57-26.73-26.66v-38.54h-22v38.54c0,28.46,19.98,48.47,48.58,48.66h.47c11.11,0,20.85-2.65,28.64-7.72-.4,3.47-.89,6.97-1.47,10.48-22.17,6.76-51.96,11.82-91.96,13.22-140.07,4.91-214.35,8.93-239.63,40.42-8.44,10.51-11.24,23.87-8.32,39.7,3.4,18.36,20.3,34.78,47.59,46.23,24.89,10.44,56.58,16.4,90.93,16.4,52.98,0,112.26-14.2,162.47-48.1,33.44-22.58,50.09-56.93,57.87-90.99,22.12-8.25,39.21-19.21,51.15-32.83,18.56-21.18,17.25-40.82,17.04-42.99Zm-138.37,148.58c-75.48,50.96-176.17,53.31-232.58,29.64-19.94-8.36-32.5-19.27-34.47-29.94-2.31-12.5,1.09-18.5,3.84-21.93,18.8-23.41,96.88-27.78,223.25-32.21,32.87-1.15,61.42-4.75,85.53-10.77-7.7,25.12-21.55,49-45.57,65.21Z"/>
      <path class="cls-1" d="m132.54,456.04c-12.57,0-22.84-2.35-30.51-6.99-8.38-5.07-13.18-12.8-13.18-21.22,0-13.64,12.84-27.45,37.37-27.45,8.92,0,20.55,1.79,33.65,4.45,4.68-11.49,9.19-26.08,14.27-43.23,7.46-25.19,15.91-53.75,28.99-79.65,10.49-20.77,21.92-36.81,33.59-49.15-16.93-1.35-34.99-.04-53.78,4.06-109.96,24.01-89.66,126.68-88.75,131.03l-21.51,4.6c-.27-1.28-26.01-128.39,105.56-157.12,31.56-6.89,58.35-6.39,80.74-1.79,32.03-22.05,62.78-21.34,78.52-18.86,33.94,5.35,62.36,27.41,66.1,51.3l-21.73,3.4c-1.71-10.94-19.27-28.48-47.79-32.98-17.35-2.73-32.77.07-46.23,6.07,30.16,12.73,48.99,32.36,58.35,44.28,30.13,38.42,37.89,89.68,19.32,127.56-9.8,19.99-35.6,53.4-98.45,53.4-.34,0-.68,0-1.03,0-19.3-.11-48.14-6.94-76.04-13.54-5.96-1.41-11.96-2.83-17.84-4.18-9.32,15.94-21.45,26.02-39.62,26.02Zm-6.32-33.67c-11.09,0-15.25,4.31-15.38,5.47.18.94,4.95,6.21,21.7,6.21,6.33,0,11.6-3.1,16.32-8.95-8.98-1.66-16.84-2.73-22.65-2.73Zm55.49-12.72c4.39,1.02,8.85,2.08,13.36,3.15,26.7,6.32,54.3,12.86,71.1,12.95.28,0,.57,0,.85,0,37.81,0,65.76-14.57,78.76-41.09,14.94-30.46,8.15-72.38-16.88-104.31-16.57-21.14-38.8-35.59-64.78-42.78-20.6,17.25-34.37,40.5-41.34,54.3-12.19,24.14-20.34,51.68-27.54,75.98-4.42,14.94-8.66,29.24-13.53,41.81Z"/>
      <path class="cls-1" d="m895.91,126.4C796.81,44.89,665.19,0,525.28,0S253.74,44.89,154.65,126.4C54.93,208.43,0,317.69,0,434.05c0,63.01,16.11,123.94,46.73,179.58h25.95c-32.28-54.3-50.4-115.24-50.4-179.58C22.28,207,247.91,22.27,525.28,22.27s503,184.73,503,411.78c0,64.34-18.12,125.28-50.4,179.58h25.96c30.61-55.64,46.71-116.57,46.71-179.58,0-116.36-54.91-225.62-154.64-307.65Z"/>
    </g>
  </g>
</svg>