<?xml version="1.0" encoding="UTF-8"?>
<svg id="Layer_2" data-name="Layer 2" xmlns="http://www.w3.org/2000/svg" viewBox="0 0 755.33 339.51">
  <defs>
    <style>
      .cls-1 {
        fill: #8dc63f;
        stroke-width: 0px;
      }
    </style>
  </defs>
  <g id="Layer_1-2" data-name="Layer 1">
    <path class="cls-1" d="m360.89,210.03c-19.9,0-36.1-16.19-36.1-36.1,0-9.67,3.77-18.76,10.61-25.6,6.84-6.84,15.94-10.61,25.6-10.61h35.82l.16,36.06c.04,9.68-3.7,18.78-10.52,25.63-6.82,6.85-15.9,10.62-25.57,10.62Zm.12-54.35c-4.87,0-9.45,1.9-12.91,5.35-3.45,3.45-5.35,8.04-5.35,12.91,0,10,8.14,18.14,18.14,18.14,4.86,0,9.42-1.9,12.85-5.34,3.43-3.45,5.31-8.02,5.29-12.88l-.08-18.18h-17.94Z"/>
    <path class="cls-1" d="m284.4,210.04h-35.82l-.16-36.06c0-1.37.06-2.59.19-3.78.84-8.21,4.54-15.99,10.42-21.87,5.87-5.87,13.66-9.58,21.91-10.42,1.08-.12,2.28-.19,3.57-.19h35.94l.16,36.1c0,1.33-.07,2.59-.19,3.76-.84,8.18-4.54,15.97-10.42,21.84-5.87,5.88-13.66,9.58-21.91,10.42-1.08.12-2.32.19-3.69.19Zm-17.94-17.96h17.94c.68,0,1.28-.03,1.77-.08,4.25-.44,8.17-2.3,11.14-5.27,2.96-2.97,4.83-6.89,5.26-11.05.06-.58.09-1.18.09-1.84l-.08-18.16h-18.06c-.61,0-1.15.03-1.64.08-4.26.44-8.18,2.3-11.14,5.27-2.97,2.97-4.83,6.89-5.26,11.05-.06.59-.09,1.18-.09,1.86l.08,18.14Z"/>
    <path class="cls-1" d="m419.8,208.98h-17.96v-34.35c0-16.79,6.39-36.81,36.81-36.81v17.96c-14.1,0-18.85,4.76-18.85,18.85v34.35Z"/>
    <path class="cls-1" d="m597.34,208.98h-17.96v-34.35c0-16.79,6.39-36.81,36.81-36.81v17.96c-14.1,0-18.85,4.76-18.85,18.85v34.35Z"/>
    <path class="cls-1" d="m541.38,210.04c-12.47,0-23.88-6.3-30.52-16.84-3.64-5.75-5.57-12.41-5.57-19.25,0-9.67,3.77-18.76,10.61-25.6,6.29-6.29,13.67-9.44,24.7-10.57l.91-.05h8.1c13.38.22,14.78,12.74,15.61,20.21l.53,4.77-28.82,28.82c1.44.36,2.93.55,4.46.55,9.38,0,17.32-7.31,18.07-16.64l17.9,1.43c-1.49,18.6-17.29,33.16-35.97,33.16Zm.59-54.35c-7.49.82-10.69,2.66-13.38,5.35-3.45,3.45-5.35,8.04-5.35,12.91,0,1.75.25,3.48.74,5.13l22.93-22.93c-.02-.16-.04-.31-.07-.46h-4.87Z"/>
    <path class="cls-1" d="m447.48,210.04l-.03-17.96,36.3-.07c1.04,0,2.58-1.82,2.58-4.56s-1.55-4.59-2.57-4.59h-22.72c-11.32,0-20.53-10.1-20.53-22.52s9.21-22.52,20.53-22.52h22.72v17.96h-22.72c-1.02,0-2.57,1.82-2.57,4.56s1.55,4.56,2.57,4.56h22.72c11.32,0,20.52,10.1,20.52,22.52s-9.21,22.55-20.52,22.55l-36.28.07Z"/>
    <path class="cls-1" d="m519.67,339.51c-28.04,0-53.92-4.87-74.24-13.39-22.28-9.35-36.08-22.75-38.85-37.75-2.39-12.92-.1-23.83,6.79-32.41,20.64-25.71,81.29-28.99,195.65-33,32.66-1.14,56.98-5.28,75.09-10.8.47-2.87.87-5.73,1.2-8.56-6.37,4.14-14.32,6.3-23.38,6.3-.13,0-.25,0-.38,0-23.35-.15-39.66-16.49-39.66-39.72v-31.47h17.96v31.47c0,13.14,8.57,21.68,21.83,21.77.08,0,.17,0,.25,0,4.95,0,11.67-.96,16.13-5.45,3.61-3.63,5.4-9.08,5.32-16.22v-31.57l12.36-.48,5.5-.78.07.45c1.55,9.21,5.29,36.35,1.81,67.03,11.51-5.45,19.1-11.43,24.11-16.94,10.66-11.74,10.17-21.94,10.15-22.37l17.89-1.58c.17,1.77,1.24,17.81-13.91,35.1-9.75,11.12-23.7,20.07-41.76,26.8-6.35,27.81-19.95,55.86-47.25,74.29-40.99,27.68-89.39,39.27-132.65,39.27Zm159.81-107.4c-19.69,4.92-42.99,7.86-69.84,8.8-103.17,3.61-166.93,7.18-182.27,26.29-2.25,2.8-5.02,7.7-3.14,17.91,1.61,8.71,11.87,17.62,28.14,24.45,46.06,19.32,128.27,17.4,189.9-24.2,19.61-13.24,30.92-32.73,37.21-53.24Z"/>
    <path class="cls-1" d="m50.67,214.36c-10.27,0-18.65-1.92-24.91-5.71-6.84-4.14-10.76-10.45-10.76-17.33,0-11.14,10.48-22.41,30.51-22.41,7.29,0,16.78,1.46,27.48,3.64,3.82-9.38,7.51-21.29,11.65-35.3,6.09-20.57,12.99-43.88,23.67-65.03,8.57-16.96,17.89-30.06,27.42-40.13-13.82-1.1-28.57-.04-43.91,3.31C2.05,55,18.62,138.82,19.36,142.38l-17.56,3.76c-.22-1.05-21.24-104.83,86.19-128.29,25.77-5.63,47.64-5.22,65.92-1.46C180.06-1.62,205.17-1.04,218.02.99c27.71,4.37,50.92,22.38,53.97,41.89l-17.74,2.77c-1.4-8.93-15.73-23.25-39.02-26.92-14.17-2.23-26.75.05-37.75,4.95,24.62,10.4,40,26.42,47.64,36.15,24.6,31.37,30.94,73.22,15.78,104.15-8,16.32-29.07,43.6-80.38,43.6-.28,0-.56,0-.84,0-15.75-.09-39.3-5.67-62.08-11.06-4.86-1.15-9.77-2.31-14.57-3.41-7.61,13.02-17.51,21.25-32.34,21.25Zm-5.16-27.49c-9.06,0-12.45,3.52-12.55,4.47.15.76,4.04,5.07,17.72,5.07,5.17,0,9.47-2.54,13.33-7.31-7.33-1.36-13.75-2.23-18.49-2.23Zm45.3-10.39c3.58.83,7.23,1.7,10.91,2.57,21.8,5.16,44.34,10.5,58.05,10.57.23,0,.46,0,.7,0,30.87,0,53.69-11.9,64.3-33.55,12.19-24.87,6.65-59.1-13.78-85.16-13.53-17.26-31.68-29.06-52.89-34.93-16.82,14.08-28.06,33.07-33.75,44.33-9.95,19.71-16.61,42.19-22.48,62.03-3.61,12.2-7.07,23.87-11.04,34.14Z"/>
  </g>
</svg>